<svg width="163" height="36" viewBox="0 0 163 36" fill="none" xmlns="http://www.w3.org/2000/svg">
<path d="M16.3636 17.6909C18.3417 17.6909 20.0997 16.6493 21.353 15.0137C22.6049 13.38 23.3661 11.1412 23.3674 8.69211C23.5528 3.79775 20.2722 0.681645 16.3636 0.681645C12.4437 0.681645 9.10776 4.4061 9.5433 8.718C9.77465 11.0083 10.4842 13.2346 11.6259 14.8979C12.7697 16.5641 14.3691 17.6909 16.3636 17.6909Z" stroke="#004F82" stroke-width="0.63671"/>
<path d="M2.32345 22.6936C1.42519 22.6936 0.733143 23.4765 0.835834 24.3665L1.87495 33.3714C1.96233 34.1287 2.60355 34.7001 3.36587 34.7001H29.4749C30.2326 34.7001 30.8714 34.1354 30.9644 33.3835L32.0777 24.3786C32.1884 23.4839 31.4918 22.6936 30.5894 22.6936H30.5595H30.5292H30.4987H30.4679H30.4367H30.4053H30.3736H30.3416H30.3093H30.2767H30.2438H30.2107H30.1772H30.1435H30.1095H30.0752H30.0407H30.0058H29.9707H29.9353H29.8996H29.8637H29.8275H29.791H29.7542H29.7172H29.6799H29.6424H29.6045H29.5664H29.5281H29.4895H29.4506H29.4115H29.3721H29.3324H29.2925H29.2523H29.2119H29.1712H29.1303H29.0891H29.0477H29.006H28.9641H28.922H28.8796H28.8369H28.794H28.7509H28.7075H28.6639H28.62H28.576H28.5316H28.4871H28.4423H28.3973H28.352H28.3065H28.2608H28.2149H28.1687H28.1223H28.0757H28.0289H27.9818H27.9345H27.8871H27.8393H27.7914H27.7433H27.6949H27.6463H27.5976H27.5486H27.4994H27.4499H27.4003H27.3505H27.3005H27.2502H27.1998H27.1492H27.0983H27.0473H26.996H26.9446H26.893H26.8412H26.7891H26.7369H26.6845H26.632H26.5792H26.5262H26.4731H26.4197H26.3662H26.3125H26.2586H26.2045H26.1503H26.0959H26.0413H25.9865H25.9316H25.8764H25.8211H25.7657H25.71H25.6542H25.5983H25.5421H25.4858H25.4293H25.3727H25.3159H25.259H25.2018H25.1446H25.0871H25.0296H24.9718H24.9139H24.8559H24.7977H24.7393H24.6808H24.6222H24.5634H24.5045H24.4454H24.3861H24.3268H24.2673H24.2076H24.1478H24.0879H24.0279H23.9677H23.9073H23.8469H23.7863H23.7256H23.6647H23.6037H23.5426H23.4814H23.42H23.3586H23.2969H23.2352H23.1734H23.1114H23.0493H22.9871H22.9248H22.8624H22.7999H22.7372H22.6745H22.6116H22.5486H22.4855H22.4223H22.359H22.2957H22.2321H22.1685H22.1048H22.041H21.9771H21.9132H21.8491H21.7849H21.7206H21.6562H21.5918H21.5272H21.4626H21.3979H21.333H21.2682H21.2032H21.1381H21.073H21.0077H20.9424H20.8771H20.8116H20.7461H20.6805H20.6148H20.549H20.4832H20.4173H20.3513H20.2853H20.2192H20.1531H20.0868H20.0206H19.9542H19.8878H19.8213H19.7548H19.6882H19.6216H19.5549H19.4881H19.4213H19.3545H19.2876H19.2206H19.1536H19.0866H19.0195H18.9524H18.8852H18.818H18.7507H18.6834H18.6161H18.5487H18.4813H18.4139H18.3464H18.2789H18.2114H18.1438H18.0762H18.0086H17.9409H17.8732H17.8055H17.7378H17.6701H17.6023H17.5345H17.4667H17.3989H17.331H17.2632H17.1953H17.1274H17.0595H16.9916H16.9237H16.8558H16.7879H16.72H16.652H16.5841H16.5161H16.4482H16.3803H16.3123H16.2444H16.1764H16.1085H16.0406H15.9727H15.9048H15.8369H15.769H15.7011H15.6332H15.5654H15.4976H15.4298H15.362H15.2942H15.2264H15.1587H15.091H15.0233H14.9556H14.888H14.8203H14.7528H14.6852H14.6177H14.5502H14.4827H14.4153H14.3479H14.2805H14.2132H14.146H14.0787H14.0115H13.9444H13.8772H13.8102H13.7432H13.6762H13.6092H13.5424H13.4755H13.4088H13.342H13.2754H13.2088H13.1422H13.0757H13.0093H12.9429H12.8766H12.8103H12.7441H12.678H12.6119H12.5459H12.48H12.4141H12.3483H12.2826H12.2169H12.1514H12.0859H12.0204H11.9551H11.8898H11.8246H11.7595H11.6945H11.6296H11.5647H11.4999H11.4352H11.3706H11.3061H11.2417H11.1774H11.1131H11.049H10.9849H10.921H10.8571H10.7934H10.7297H10.6662H10.6027H10.5393H10.4761H10.4129H10.3499H10.287H10.2242H10.1614H10.0988H10.0364H9.97398H9.91172H9.84957H9.78754H9.72563H9.66384H9.60217H9.54062H9.47919H9.41789H9.35671H9.29566H9.23473H9.17394H9.11327H9.05274H8.99233H8.93206H8.87193H8.81193H8.75206H8.69234H8.63275H8.5733H8.514H8.45483H8.39581H8.33694H8.27821H8.21963H8.1612H8.10291H8.04478H7.9868H7.92897H7.8713H7.81378H7.75641H7.69921H7.64216H7.58528H7.52855H7.47199H7.41559H7.35936H7.30329H7.24739H7.19166H7.13609H7.0807H7.02548H6.97043H6.91555H6.86085H6.80633H6.75198H6.69782H6.64383H6.59002H6.5364H6.48296H6.4297H6.37663H6.32374H6.27105H6.21854H6.16622H6.1141H6.06217H6.01043H5.95888H5.90753H5.85638H5.80543H5.75468H5.70413H5.65378H5.60363H5.55369H5.50395H5.45442H5.4051H5.35599H5.30708H5.25839H5.20991H5.16164H5.11359H5.06576H5.01814H4.97074H4.92356H4.8766H4.82986H4.78335H4.73705H4.69099H4.64515H4.59954H4.55415H4.509H4.46408H4.41939H4.37493H4.33071H4.28673H4.24298H4.19947H4.1562H4.11316H4.07037H4.02783H3.98553H3.94347H3.90166H3.86009H3.81878H3.77771H3.7369H3.69633H3.65602H3.61597H3.57617H3.53663H3.49734H3.45832H3.41955H3.38105H3.34281H3.30483H3.26712H3.22967H3.19249H3.15558H3.11894H3.08257H3.04647H3.01064H2.97509H2.93982H2.90482H2.8701H2.83565H2.80149H2.76761H2.73401H2.70069H2.66766H2.63492H2.60246H2.57029H2.53841H2.50682H2.47552H2.44452H2.41381H2.38339H2.35327H2.32345Z" stroke="#004F82" stroke-width="0.63671"/>
<mask id="path-3-outside-1_92_549" maskUnits="userSpaceOnUse" x="3.27441" y="15.9177" width="26" height="7" fill="black">
<rect fill="white" x="3.27441" y="15.9177" width="26" height="7"/>
<path d="M28.0454 21.6476H4.78126C4.61037 21.6476 4.52492 21.6476 4.47532 21.6084C4.43909 21.5797 4.41511 21.5384 4.40825 21.4927C4.39885 21.4302 4.44257 21.3538 4.53 21.201L4.81187 20.7086C4.81752 20.6987 4.82034 20.6938 4.82344 20.689C4.82578 20.6855 4.8282 20.6821 4.83078 20.6787C4.83421 20.6742 4.83797 20.6699 4.84548 20.6612C5.05005 20.425 5.42432 19.9841 5.42432 19.9485C5.42432 19.9118 6.0376 19.3821 6.34424 19.1219L7.33201 18.3151L7.33201 18.3151C7.34142 18.3074 7.34613 18.3035 7.35107 18.3C7.35477 18.2974 7.35857 18.2949 7.36247 18.2925C7.36766 18.2894 7.37306 18.2866 7.38386 18.281L8.69004 17.6065L9.94706 17.1135C9.95909 17.1088 9.96511 17.1064 9.97126 17.1045C9.97588 17.1031 9.98055 17.1018 9.98526 17.1007C9.99154 17.0993 9.99793 17.0983 10.0107 17.0964L10.9305 16.9551C11.0207 16.9412 11.0658 16.9343 11.105 16.946C11.134 16.9546 11.1604 16.9703 11.1818 16.9917C11.2106 17.0206 11.226 17.0636 11.2567 17.1495L11.3886 17.5181L11.3886 17.5181C11.3945 17.5346 11.3975 17.5429 11.4012 17.5508C11.404 17.5568 11.4071 17.5626 11.4105 17.5682C11.4151 17.5756 11.4204 17.5827 11.431 17.5968L11.9302 18.2613C11.9401 18.2745 11.9451 18.2812 11.9507 18.2873C11.9548 18.2919 11.9592 18.2963 11.9638 18.3004C11.97 18.306 11.9766 18.3109 11.9899 18.3209L12.8459 18.9618L12.8459 18.9618C12.8575 18.9705 12.8633 18.9749 12.8694 18.9787C12.874 18.9816 12.8787 18.9843 12.8835 18.9868C12.89 18.9901 12.8967 18.9929 12.9101 18.9985L13.9524 19.432C13.963 19.4365 13.9683 19.4387 13.9737 19.4405C13.9778 19.4419 13.9819 19.4432 13.9861 19.4443C13.9916 19.4458 13.9972 19.4469 14.0085 19.4491L14.8788 19.6229C14.8869 19.6245 14.8909 19.6253 14.895 19.626L14.9042 19.6271C14.9083 19.6275 14.9124 19.6278 14.9207 19.6282L16.5339 19.7177C16.5423 19.7182 16.5465 19.7184 16.5507 19.7184L16.5601 19.7183C16.5643 19.7181 16.5684 19.7177 16.5768 19.717L18.5816 19.5391C18.5986 19.5376 18.6071 19.5368 18.6154 19.5353C18.6217 19.5341 18.6279 19.5327 18.634 19.5309C18.6421 19.5285 18.65 19.5253 18.6659 19.519L19.9717 18.9975L19.9718 18.9975C19.9847 18.9923 19.9912 18.9897 19.9975 18.9866C20.0022 18.9843 20.0068 18.9818 20.0113 18.9791C20.0172 18.9755 20.0229 18.9714 20.0343 18.9633L20.939 18.3181C20.9515 18.3093 20.9577 18.3048 20.9635 18.2999C20.9679 18.2962 20.9721 18.2923 20.9761 18.2882C20.9814 18.2828 20.9862 18.2769 20.9959 18.2651L20.996 18.2651L21.5774 17.5602C21.592 17.5425 21.5993 17.5337 21.6054 17.5241C21.6099 17.5169 21.614 17.5093 21.6175 17.5016C21.6222 17.4912 21.6256 17.4802 21.6323 17.4583L21.7191 17.1769C21.7484 17.0816 21.7631 17.0339 21.7936 17.0025C21.8162 16.9793 21.8446 16.9625 21.8758 16.9539C21.918 16.9423 21.9669 16.9524 22.0645 16.9726L23.1108 17.1887C23.1194 17.1905 23.1237 17.1914 23.1279 17.1925L23.1374 17.1952C23.1416 17.1965 23.1457 17.198 23.1539 17.201L24.3747 17.6525L25.5486 18.2835C25.5572 18.2881 25.5615 18.2904 25.5656 18.293C25.5688 18.2949 25.5718 18.2969 25.5748 18.2989C25.5788 18.3017 25.5826 18.3047 25.5903 18.3107L26.795 19.2461C26.8018 19.2514 26.8052 19.254 26.8085 19.2568L26.8157 19.2634C26.8189 19.2664 26.8218 19.2695 26.8278 19.2757L26.8278 19.2758L27.7081 20.1985C27.7176 20.2085 27.7223 20.2134 27.7267 20.2187C27.7299 20.2227 27.733 20.2268 27.7359 20.231C27.7398 20.2367 27.7432 20.2426 27.7501 20.2545L28.2996 21.1992C28.3887 21.3524 28.4333 21.429 28.4241 21.4918C28.4175 21.5377 28.3935 21.5793 28.3573 21.6081C28.3076 21.6476 28.2202 21.6476 28.0454 21.6476Z"/>
</mask>
<path d="M28.2996 21.1992L27.7492 21.5193V21.5193L28.2996 21.1992ZM27.7501 20.2545L27.1997 20.5746L27.1997 20.5746L27.7501 20.2545ZM27.7081 20.1985L27.2474 20.638L27.2474 20.638L27.7081 20.1985ZM26.8278 19.2758L26.3574 19.7051L26.3671 19.7153L26.8278 19.2758ZM26.795 19.2461L26.4045 19.749L26.4045 19.749L26.795 19.2461ZM25.5903 18.3107L25.1998 18.8136L25.1998 18.8136L25.5903 18.3107ZM25.5486 18.2835L25.2471 18.8443L25.2472 18.8444L25.5486 18.2835ZM24.3747 17.6525L24.6762 17.0916C24.6502 17.0777 24.6232 17.0655 24.5955 17.0553L24.3747 17.6525ZM23.1539 17.201L22.9331 17.7982L22.9331 17.7982L23.1539 17.201ZM23.1108 17.1887L22.982 17.8122L22.982 17.8122L23.1108 17.1887ZM22.0645 16.9726L21.9357 17.5961L21.9357 17.5961L22.0645 16.9726ZM21.7191 17.1769L22.3275 17.3644L22.3275 17.3644L21.7191 17.1769ZM21.6323 17.4583L21.0239 17.2707L21.0239 17.2708L21.6323 17.4583ZM21.5774 17.5602L21.0862 17.1551L21.0862 17.1551L21.5774 17.5602ZM20.996 18.2651L21.4719 18.6881C21.4771 18.6822 21.4822 18.6763 21.4871 18.6702L20.996 18.2651ZM20.939 18.3181L20.5694 17.7997L20.5694 17.7997L20.939 18.3181ZM20.0343 18.9633L20.404 19.4817L20.404 19.4817L20.0343 18.9633ZM19.9717 18.9975L19.7438 18.4029L19.7356 18.4062L19.9717 18.9975ZM18.6659 19.519L18.4297 18.9277L18.4297 18.9277L18.6659 19.519ZM18.5816 19.5391L18.5253 18.9049L18.5253 18.9049L18.5816 19.5391ZM16.5768 19.717L16.5205 19.0828H16.5205L16.5768 19.717ZM16.5339 19.7177L16.4986 20.3534L16.4986 20.3534L16.5339 19.7177ZM14.9207 19.6282L14.8854 20.264H14.8854L14.9207 19.6282ZM14.8788 19.6229L15.0034 18.9985L15.0034 18.9985L14.8788 19.6229ZM14.0085 19.4491L14.1332 18.8248L14.1332 18.8248L14.0085 19.4491ZM13.9524 19.432L14.1969 18.8442L14.1969 18.8442L13.9524 19.432ZM12.9101 18.9985L12.6655 19.5863L12.6655 19.5863L12.9101 18.9985ZM12.8459 18.9618L13.2279 18.4525L13.2275 18.4522L12.8459 18.9618ZM11.9899 18.3209L12.3715 17.8112L12.3715 17.8112L11.9899 18.3209ZM11.9302 18.2613L12.4392 17.8788L12.4392 17.8788L11.9302 18.2613ZM11.431 17.5968L11.94 17.2143L11.94 17.2143L11.431 17.5968ZM11.3886 17.5181L11.9965 17.3286C11.9938 17.3202 11.9911 17.3119 11.9881 17.3036L11.3886 17.5181ZM11.2567 17.1495L10.6572 17.3639L10.6572 17.3639L11.2567 17.1495ZM10.9305 16.9551L11.0272 17.5844V17.5844L10.9305 16.9551ZM10.0107 17.0964L10.1074 17.7257L10.1074 17.7257L10.0107 17.0964ZM9.94706 17.1135L10.1795 17.7063L10.1795 17.7063L9.94706 17.1135ZM8.69004 17.6065L8.45756 17.0138C8.43722 17.0218 8.41731 17.0308 8.3979 17.0408L8.69004 17.6065ZM7.38386 18.281L7.676 18.8468L7.676 18.8468L7.38386 18.281ZM7.33201 18.3151L6.96688 17.7935C6.95397 17.8025 6.94141 17.812 6.92921 17.822L7.33201 18.3151ZM6.34424 19.1219L5.94137 18.6287L5.93227 18.6365L6.34424 19.1219ZM4.84548 20.6612L4.36417 20.2444L4.36417 20.2444L4.84548 20.6612ZM4.81187 20.7086L5.36446 21.0249L5.36447 21.0249L4.81187 20.7086ZM4.53 21.201L5.0826 21.5173L4.53 21.201ZM7.36247 18.2925L7.0333 17.7475L7.0333 17.7475L7.36247 18.2925ZM7.33201 18.3151L7.69714 18.8367C7.71005 18.8276 7.72262 18.8181 7.73482 18.8082L7.33201 18.3151ZM7.35107 18.3L7.72013 18.8189L7.72015 18.8189L7.35107 18.3ZM9.98526 17.1007L9.84429 16.4798L9.84429 16.4798L9.98526 17.1007ZM9.97126 17.1045L9.78132 16.4968L9.78132 16.4968L9.97126 17.1045ZM11.1818 16.9917L11.6322 16.5417L11.6322 16.5417L11.1818 16.9917ZM11.105 16.946L11.2865 16.3357L11.2865 16.3357L11.105 16.946ZM11.4105 17.5682L10.8671 17.8999L10.8671 17.8999L11.4105 17.5682ZM11.3886 17.5181L10.7807 17.7075C10.7833 17.7159 10.7861 17.7243 10.7891 17.7326L11.3886 17.5181ZM11.4012 17.5508L11.9773 17.2798L11.9773 17.2798L11.4012 17.5508ZM11.9638 18.3004L12.3901 17.8275L12.3901 17.8275L11.9638 18.3004ZM11.9507 18.2873L11.4784 18.7143L11.4784 18.7143L11.9507 18.2873ZM12.8835 18.9868L13.174 18.4202L13.174 18.4202L12.8835 18.9868ZM12.8459 18.9618L12.4639 19.4712L12.4643 19.4715L12.8459 18.9618ZM12.8694 18.9787L12.5295 19.5171L12.5295 19.5171L12.8694 18.9787ZM13.9861 19.4443L14.1499 18.829L14.1498 18.829L13.9861 19.4443ZM13.9737 19.4405L14.1808 18.8384L14.1807 18.8384L13.9737 19.4405ZM14.9042 19.6271L14.824 20.2588C14.8294 20.2595 14.8348 20.2601 14.8401 20.2606L14.9042 19.6271ZM14.895 19.626L14.7987 20.2554C14.8041 20.2562 14.8094 20.2569 14.8148 20.2576L14.895 19.626ZM16.5601 19.7183L16.5706 20.3549C16.5761 20.3548 16.5816 20.3547 16.5871 20.3544L16.5601 19.7183ZM16.5507 19.7184L16.5447 20.3551C16.5502 20.3552 16.5557 20.3552 16.5612 20.3551L16.5507 19.7184ZM20.0113 18.9791L19.6824 18.4339L19.6824 18.4339L20.0113 18.9791ZM19.9718 18.9975L20.1997 19.592L20.208 19.5887L19.9718 18.9975ZM19.9975 18.9866L19.7168 18.4151L19.7168 18.4151L19.9975 18.9866ZM20.9959 18.2651L20.5201 17.8421C20.5148 17.848 20.5097 17.8539 20.5047 17.86L20.9959 18.2651ZM20.9761 18.2882L21.4316 18.733L21.4317 18.733L20.9761 18.2882ZM20.9635 18.2999L21.3752 18.7856L21.3753 18.7855L20.9635 18.2999ZM21.6175 17.5016L21.0372 17.2396L21.0372 17.2396L21.6175 17.5016ZM21.6054 17.5241L21.0676 17.1833L21.0675 17.1834L21.6054 17.5241ZM21.8758 16.9539L21.7069 16.34L21.7069 16.34L21.8758 16.9539ZM21.7936 17.0025L22.2502 17.4463L22.2502 17.4463L21.7936 17.0025ZM23.1374 17.1952L23.3292 16.588C23.3237 16.5863 23.3182 16.5846 23.3127 16.5831L23.1374 17.1952ZM23.1279 17.1925L23.3032 16.5803C23.2977 16.5788 23.2922 16.5773 23.2866 16.5758L23.1279 17.1925ZM25.5748 18.2989L25.2117 18.822L25.2117 18.822L25.5748 18.2989ZM25.5656 18.293L25.8968 17.7491L25.8966 17.749L25.5656 18.293ZM26.8278 19.2757L27.2981 18.8465C27.2949 18.843 27.2917 18.8396 27.2884 18.8362L26.8278 19.2757ZM26.8157 19.2634L27.255 18.8024C27.2509 18.7985 27.2467 18.7947 27.2425 18.7909L26.8157 19.2634ZM26.8085 19.2568L27.2353 18.7843C27.2311 18.7805 27.2268 18.7768 27.2224 18.773L26.8085 19.2568ZM27.7359 20.231L27.2111 20.5915L27.2112 20.5917L27.7359 20.231ZM27.7267 20.2187L27.2342 20.6224L27.2343 20.6224L27.7267 20.2187ZM4.83078 20.6787L4.32456 20.2925L4.32455 20.2925L4.83078 20.6787ZM4.82344 20.689L5.35537 21.039L5.35537 21.039L4.82344 20.689ZM28.3573 21.6081L27.9613 21.1095L27.9613 21.1095L28.3573 21.6081ZM28.4241 21.4918L27.7941 21.4002L27.7941 21.4002L28.4241 21.4918ZM18.634 19.5309L18.814 20.1416L18.814 20.1416L18.634 19.5309ZM18.6154 19.5353L18.5003 18.9091L18.5003 18.9091L18.6154 19.5353ZM4.47532 21.6084L4.87021 21.1089L4.87021 21.1089L4.47532 21.6084ZM4.40825 21.4927L5.03789 21.3981L4.40825 21.4927ZM4.78126 22.2843H28.0454V21.0109H4.78126V22.2843ZM28.85 20.8791L28.3005 19.9344L27.1997 20.5746L27.7492 21.5193L28.85 20.8791ZM28.1688 19.759L27.2886 18.8363L26.3671 19.7153L27.2474 20.638L28.1688 19.759ZM27.1855 18.7432L25.9808 17.8078L25.1998 18.8136L26.4045 19.749L27.1855 18.7432ZM25.8501 17.7227L24.6762 17.0916L24.0732 18.2133L25.2471 18.8443L25.8501 17.7227ZM24.5955 17.0553L23.3747 16.6039L22.9331 17.7982L24.1539 18.2497L24.5955 17.0553ZM23.2396 16.5652L22.1933 16.349L21.9357 17.5961L22.982 17.8122L23.2396 16.5652ZM21.1106 16.9894L21.0239 17.2707L22.2408 17.6458L22.3275 17.3644L21.1106 16.9894ZM21.0862 17.1551L20.5048 17.8599L21.4871 18.6702L22.0685 17.9654L21.0862 17.1551ZM20.5694 17.7997L19.6646 18.4449L20.404 19.4817L21.3087 18.8365L20.5694 17.7997ZM19.7356 18.4062L18.4297 18.9277L18.902 20.1103L20.2079 19.5888L19.7356 18.4062ZM18.5253 18.9049L16.5205 19.0828L16.6331 20.3512L18.6379 20.1733L18.5253 18.9049ZM16.5692 19.082L14.9559 18.9925L14.8854 20.264L16.4986 20.3534L16.5692 19.082ZM15.0034 18.9985L14.1332 18.8248L13.8839 20.0735L14.7541 20.2473L15.0034 18.9985ZM14.1969 18.8442L13.1546 18.4106L12.6655 19.5863L13.7078 20.0199L14.1969 18.8442ZM13.2275 18.4522L12.3715 17.8112L11.6083 18.8306L12.4642 19.4715L13.2275 18.4522ZM12.4392 17.8788L11.94 17.2143L10.9219 17.9792L11.4211 18.6437L12.4392 17.8788ZM11.9881 17.3036L11.8562 16.935L10.6572 17.3639L10.7891 17.7325L11.9881 17.3036ZM10.8339 16.3258L9.91404 16.467L10.1074 17.7257L11.0272 17.5844L10.8339 16.3258ZM9.71458 16.5208L8.45756 17.0138L8.92253 18.1993L10.1795 17.7063L9.71458 16.5208ZM8.3979 17.0408L7.09171 17.7153L7.676 18.8468L8.98218 18.1723L8.3979 17.0408ZM6.92921 17.822L5.94145 18.6288L6.74703 19.615L7.7348 18.8082L6.92921 17.822ZM5.93227 18.6365C5.77707 18.7682 5.54351 18.9687 5.34744 19.1421C5.25016 19.2282 5.15761 19.3115 5.08753 19.3778C5.05366 19.4098 5.01755 19.4448 4.987 19.4774C4.97307 19.4922 4.94954 19.5179 4.92585 19.5488C4.91475 19.5633 4.89278 19.5929 4.87064 19.6324C4.86382 19.6446 4.78761 19.7707 4.78761 19.9485H6.06103C6.06103 20.0506 6.03622 20.1281 6.02296 20.1645C6.00792 20.2057 5.99159 20.2369 5.98153 20.2549C5.96173 20.2902 5.94324 20.3147 5.9367 20.3233C5.92215 20.3423 5.91209 20.3525 5.91553 20.3488C5.91972 20.3444 5.93392 20.33 5.96234 20.3031C6.01683 20.2516 6.09677 20.1794 6.19114 20.0959C6.37836 19.9303 6.60477 19.7359 6.75621 19.6074L5.93227 18.6365ZM4.78761 19.9485C4.78761 19.8324 4.82048 19.7468 4.82784 19.7274C4.84017 19.6948 4.85244 19.6711 4.85806 19.6605C4.8646 19.6482 4.86998 19.6393 4.8727 19.6349C4.87565 19.6301 4.87769 19.627 4.87834 19.6261C4.87908 19.6249 4.87339 19.6333 4.857 19.6547C4.82603 19.6952 4.77885 19.7538 4.72077 19.8241C4.60596 19.963 4.46476 20.1282 4.36417 20.2444L5.3268 21.078C5.43077 20.9579 5.57898 20.7846 5.70246 20.6352C5.76351 20.5613 5.82269 20.4882 5.86828 20.4286C5.89018 20.4 5.91532 20.3662 5.93733 20.3333C5.94756 20.3179 5.9649 20.2913 5.98207 20.259C5.99048 20.2432 6.00487 20.2149 6.01864 20.1786C6.02742 20.1554 6.06103 20.0669 6.06103 19.9485H4.78761ZM4.25927 20.3923L3.97741 20.8847L5.0826 21.5173L5.36446 21.0249L4.25927 20.3923ZM7.09172 17.7153C7.08799 17.7172 7.06078 17.7309 7.0333 17.7475L7.69163 18.8376C7.68141 18.8437 7.67349 18.848 7.6707 18.8495C7.66955 18.8501 7.66917 18.8503 7.67033 18.8497C7.67153 18.8491 7.67308 18.8483 7.676 18.8468L7.09172 17.7153ZM7.69714 18.8367L7.69714 18.8367L6.96688 17.7935L6.96688 17.7935L7.69714 18.8367ZM7.73482 18.8082C7.73735 18.8061 7.7387 18.805 7.73975 18.8041C7.74076 18.8033 7.74044 18.8036 7.73941 18.8044C7.73694 18.8064 7.72986 18.8119 7.72013 18.8189L6.98201 17.7812C6.95584 17.7998 6.93246 17.8193 6.9292 17.822L7.73482 18.8082ZM7.0333 17.7475C7.0158 17.7581 6.99868 17.7693 6.98199 17.7812L7.72015 18.8189C7.71086 18.8255 7.70135 18.8317 7.69164 18.8376L7.0333 17.7475ZM9.91405 16.467C9.90965 16.4677 9.87758 16.4723 9.84429 16.4798L10.1262 17.7217C10.1138 17.7245 10.1044 17.7261 10.1011 17.7267C10.0997 17.7269 10.0993 17.727 10.1007 17.7267C10.1021 17.7265 10.1039 17.7262 10.1074 17.7257L9.91405 16.467ZM10.1795 17.7063C10.1828 17.705 10.1845 17.7043 10.1859 17.7038C10.1872 17.7033 10.1867 17.7035 10.1855 17.7039C10.1823 17.7051 10.1733 17.7084 10.1612 17.7122L9.78132 16.4968C9.74874 16.507 9.71872 16.5191 9.71458 16.5208L10.1795 17.7063ZM9.84429 16.4798C9.82308 16.4847 9.80208 16.4903 9.78132 16.4968L10.1612 17.7122C10.1497 17.7158 10.138 17.719 10.1262 17.7217L9.84429 16.4798ZM11.8562 16.935C11.8443 16.9015 11.8233 16.8414 11.7992 16.7879C11.7715 16.7264 11.7223 16.6319 11.6322 16.5417L10.7314 17.4418C10.6701 17.3805 10.643 17.3218 10.6379 17.3105C10.6356 17.3053 10.6359 17.3053 10.64 17.3163C10.6441 17.3274 10.6491 17.3411 10.6572 17.3639L11.8562 16.935ZM11.0272 17.5844C11.0511 17.5807 11.0656 17.5785 11.0773 17.5769C11.0889 17.5753 11.0891 17.5756 11.0834 17.576C11.071 17.5769 11.0065 17.581 10.9234 17.5562L11.2865 16.3357C11.1643 16.2993 11.0577 16.301 10.9904 16.306C10.9319 16.3102 10.869 16.3204 10.8339 16.3258L11.0272 17.5844ZM11.6322 16.5417C11.5359 16.4453 11.417 16.3745 11.2865 16.3357L10.9234 17.5562C10.8509 17.5347 10.7849 17.4953 10.7314 17.4418L11.6322 16.5417ZM11.94 17.2143C11.9372 17.2105 11.9357 17.2085 11.9345 17.2069C11.9333 17.2054 11.9337 17.2059 11.9348 17.2074C11.9374 17.2111 11.945 17.2217 11.954 17.2364L10.8671 17.8999C10.8913 17.9395 10.9183 17.9744 10.9219 17.9792L11.94 17.2143ZM10.7807 17.7075L10.7807 17.7075L11.9965 17.3286L11.9965 17.3286L10.7807 17.7075ZM10.7891 17.7326C10.7911 17.7382 10.8053 17.7799 10.8251 17.8219L11.9773 17.2798C11.9847 17.2954 11.9894 17.3075 11.991 17.3118C11.9917 17.3135 11.9919 17.3141 11.9912 17.3123C11.9905 17.3104 11.9897 17.308 11.9881 17.3036L10.7891 17.7326ZM11.954 17.2364C11.9626 17.2504 11.9703 17.2649 11.9773 17.2798L10.8251 17.8219C10.8377 17.8487 10.8517 17.8747 10.8671 17.8999L11.954 17.2364ZM12.3715 17.8112C12.3679 17.8085 12.366 17.8071 12.3645 17.806C12.3631 17.8049 12.3636 17.8052 12.365 17.8063C12.3683 17.809 12.378 17.8166 12.3901 17.8275L11.5375 18.7734C11.5701 18.8027 11.6037 18.8272 11.6083 18.8306L12.3715 17.8112ZM11.4211 18.6437C11.4245 18.6482 11.449 18.6819 11.4784 18.7143L12.423 17.8603C12.4339 17.8724 12.4415 17.882 12.4441 17.8854C12.4452 17.8868 12.4456 17.8872 12.4445 17.8858C12.4434 17.8843 12.4419 17.8824 12.4392 17.8788L11.4211 18.6437ZM12.3901 17.8275C12.4016 17.8379 12.4126 17.8488 12.4229 17.8603L11.4784 18.7143C11.4971 18.735 11.5168 18.7547 11.5375 18.7734L12.3901 17.8275ZM13.1546 18.4106C13.151 18.4091 13.1491 18.4083 13.1476 18.4077C13.1462 18.4071 13.1466 18.4073 13.1481 18.4079C13.1515 18.4094 13.1613 18.4137 13.174 18.4202L12.5931 19.5534C12.6272 19.5709 12.6609 19.5844 12.6655 19.5863L13.1546 18.4106ZM12.4638 19.4712L12.4639 19.4712L13.2279 18.4525L13.2279 18.4525L12.4638 19.4712ZM12.4643 19.4715C12.4682 19.4745 12.4971 19.4967 12.5295 19.5171L13.2093 18.4404C13.2214 18.448 13.2302 18.4542 13.2332 18.4564C13.2345 18.4574 13.2348 18.4577 13.2336 18.4567C13.2323 18.4558 13.2306 18.4545 13.2275 18.4522L12.4643 19.4715ZM13.174 18.4202C13.1861 18.4264 13.1979 18.4331 13.2093 18.4404L12.5295 19.5171C12.5501 19.5302 12.5713 19.5423 12.5931 19.5534L13.174 18.4202ZM14.1332 18.8248C14.1302 18.8242 14.1285 18.8238 14.1273 18.8236C14.1261 18.8233 14.1265 18.8234 14.1277 18.8237C14.1306 18.8243 14.1389 18.8261 14.1499 18.829L13.8223 20.0596C13.8516 20.0674 13.88 20.0728 13.8839 20.0735L14.1332 18.8248ZM13.7078 20.0199C13.7115 20.0214 13.738 20.0328 13.7667 20.0427L14.1807 18.8384C14.1914 18.8421 14.1993 18.8452 14.2021 18.8463C14.2032 18.8468 14.2036 18.847 14.2025 18.8465C14.2013 18.846 14.1998 18.8454 14.1969 18.8442L13.7078 20.0199ZM14.1498 18.829C14.1602 18.8318 14.1705 18.8349 14.1808 18.8384L13.7667 20.0426C13.785 20.049 13.8036 20.0546 13.8223 20.0596L14.1498 18.829ZM14.9559 18.9925C14.9537 18.9924 14.9525 18.9923 14.9516 18.9923C14.9507 18.9922 14.951 18.9922 14.9519 18.9923C14.954 18.9924 14.9601 18.9928 14.9682 18.9936L14.8401 20.2606C14.8619 20.2628 14.8825 20.2638 14.8854 20.264L14.9559 18.9925ZM14.7541 20.2473C14.7569 20.2479 14.7771 20.2521 14.7987 20.2554L14.9912 18.9966C14.9993 18.9978 15.0053 18.9989 15.0074 18.9993C15.0083 18.9995 15.0085 18.9995 15.0077 18.9994C15.0068 18.9992 15.0056 18.999 15.0034 18.9985L14.7541 20.2473ZM14.9843 18.9955L14.9751 18.9943L14.8148 20.2576L14.824 20.2588L14.9843 18.9955ZM16.5205 19.0828C16.5183 19.083 16.5171 19.0831 16.5161 19.0832C16.5152 19.0832 16.5155 19.0832 16.5164 19.0831C16.5186 19.083 16.5248 19.0825 16.533 19.0821L16.5871 20.3544C16.6093 20.3535 16.6302 20.3515 16.6331 20.3512L16.5205 19.0828ZM16.4986 20.3534C16.5015 20.3536 16.5225 20.3549 16.5447 20.3551L16.5566 19.0818C16.5649 19.0818 16.5711 19.0821 16.5733 19.0822C16.5742 19.0822 16.5745 19.0823 16.5736 19.0822C16.5726 19.0822 16.5714 19.0821 16.5692 19.082L16.4986 20.3534ZM16.5495 19.0817L16.5401 19.0818L16.5612 20.3551L16.5706 20.3549L16.5495 19.0817ZM19.6646 18.4449C19.6616 18.4471 19.6599 18.4483 19.6587 18.4492C19.6574 18.4501 19.6578 18.4498 19.659 18.4489C19.662 18.4469 19.6706 18.441 19.6824 18.4339L20.3401 19.5243C20.3718 19.5052 20.4001 19.4845 20.404 19.4817L19.6646 18.4449ZM20.1996 19.592L20.1997 19.592L19.7439 18.4029L19.7438 18.403L20.1996 19.592ZM20.208 19.5887C20.2124 19.587 20.2451 19.5744 20.2782 19.5581L19.7168 18.4151C19.7291 18.4091 19.7387 18.405 19.742 18.4036C19.7434 18.4031 19.7438 18.4029 19.7424 18.4035C19.741 18.404 19.7391 18.4048 19.7356 18.4062L20.208 19.5887ZM19.6824 18.4339C19.6935 18.4272 19.705 18.4209 19.7168 18.4151L20.2782 19.5581C20.2994 19.5477 20.32 19.5364 20.3401 19.5243L19.6824 18.4339ZM20.5201 17.8421L20.5201 17.8421L21.4718 18.6881L21.4719 18.6881L20.5201 17.8421ZM20.5047 17.86C20.5021 17.8632 20.5007 17.8649 20.4996 17.8662C20.4986 17.8674 20.4989 17.867 20.5 17.8658C20.5026 17.8628 20.51 17.8542 20.5205 17.8434L21.4317 18.733C21.4598 18.7041 21.4838 18.6743 21.4871 18.6702L20.5047 17.86ZM21.3087 18.8365C21.313 18.8335 21.3445 18.8117 21.3752 18.7856L20.5518 17.8142C20.5633 17.8045 20.5723 17.7977 20.5755 17.7954C20.5768 17.7944 20.5772 17.7941 20.5759 17.7951C20.5745 17.7961 20.5727 17.7973 20.5694 17.7997L21.3087 18.8365ZM20.5205 17.8434C20.5305 17.8332 20.5409 17.8234 20.5518 17.8142L21.3753 18.7855C21.3949 18.769 21.4137 18.7514 21.4316 18.733L20.5205 17.8434ZM21.0239 17.2708C21.022 17.2767 21.0211 17.2798 21.0203 17.2823C21.0195 17.2847 21.0198 17.284 21.0205 17.2817C21.0224 17.2762 21.0279 17.2601 21.0372 17.2396L22.1978 17.7635C22.2227 17.7085 22.2385 17.6532 22.2408 17.6458L21.0239 17.2708ZM22.0685 17.9654C22.0735 17.9594 22.111 17.9158 22.1433 17.8648L21.0675 17.1834C21.0796 17.1643 21.0899 17.1509 21.0935 17.1463C21.095 17.1444 21.0955 17.1438 21.0939 17.1458C21.0923 17.1478 21.0901 17.1503 21.0862 17.1551L22.0685 17.9654ZM21.0372 17.2396C21.0459 17.2202 21.0561 17.2014 21.0676 17.1833L22.1432 17.8649C22.1638 17.8323 22.1821 17.7985 22.1978 17.7635L21.0372 17.2396ZM22.1933 16.349C22.1549 16.3411 22.088 16.3268 22.0258 16.3192C21.9551 16.3107 21.8399 16.3034 21.7069 16.34L22.0447 17.5678C21.9539 17.5928 21.8843 17.5848 21.8729 17.5834C21.8674 17.5828 21.8681 17.5826 21.881 17.5851C21.8939 17.5875 21.9098 17.5908 21.9357 17.5961L22.1933 16.349ZM22.3275 17.3644C22.3353 17.3392 22.3401 17.3236 22.3442 17.3112C22.3482 17.2987 22.3488 17.2981 22.3467 17.3032C22.3424 17.3139 22.3159 17.3788 22.2502 17.4463L21.337 16.5588C21.2409 16.6577 21.1917 16.7621 21.1652 16.8283C21.1418 16.8864 21.1221 16.9519 21.1106 16.9894L22.3275 17.3644ZM21.7069 16.34C21.5663 16.3787 21.4386 16.4542 21.337 16.5588L22.2502 17.4463C22.1938 17.5044 22.1228 17.5463 22.0447 17.5678L21.7069 16.34ZM23.3748 16.6039C23.3719 16.6028 23.3513 16.595 23.3292 16.588L22.9456 17.8023C22.9374 17.7997 22.9312 17.7975 22.9291 17.7968C22.9282 17.7964 22.9279 17.7963 22.9288 17.7966C22.9297 17.797 22.9309 17.7974 22.9331 17.7982L23.3748 16.6039ZM22.982 17.8122C22.9843 17.8127 22.9856 17.813 22.9865 17.8132C22.9874 17.8134 22.9871 17.8133 22.9862 17.8131C22.984 17.8126 22.9776 17.8112 22.9692 17.8091L23.2866 16.5758C23.2641 16.57 23.2425 16.5658 23.2396 16.5652L22.982 17.8122ZM23.3127 16.5831L23.3032 16.5803L22.9526 17.8046L22.9621 17.8073L23.3127 16.5831ZM25.9808 17.8078C25.9782 17.8057 25.959 17.7906 25.9379 17.7759L25.2117 18.822C25.2039 18.8165 25.1981 18.8122 25.1961 18.8106C25.1952 18.81 25.195 18.8098 25.1958 18.8104C25.1966 18.8111 25.1977 18.8119 25.1998 18.8136L25.9808 17.8078ZM25.2472 18.8444C25.2495 18.8456 25.2507 18.8463 25.2517 18.8468C25.2526 18.8473 25.2523 18.8471 25.2514 18.8466C25.2491 18.8454 25.2428 18.8419 25.2347 18.8369L25.8966 17.749C25.8746 17.7357 25.8531 17.7243 25.8501 17.7227L25.2472 18.8444ZM25.9379 17.7759C25.9244 17.7665 25.9107 17.7576 25.8968 17.7491L25.2345 18.8368C25.2269 18.8321 25.2192 18.8272 25.2117 18.822L25.9379 17.7759ZM27.2982 18.8466L27.2981 18.8465L26.3575 19.7049L26.3575 19.705L27.2982 18.8466ZM27.2884 18.8362C27.2865 18.8341 27.2716 18.8182 27.255 18.8024L26.3765 19.7243C26.3703 19.7184 26.3658 19.7138 26.3642 19.7122C26.3636 19.7115 26.3634 19.7113 26.364 19.712C26.3647 19.7127 26.3655 19.7136 26.3671 19.7153L27.2884 18.8362ZM26.4045 19.749C26.4063 19.7504 26.4073 19.7512 26.408 19.7517C26.4088 19.7523 26.4085 19.7521 26.4078 19.7515C26.406 19.7501 26.401 19.7461 26.3946 19.7406L27.2224 18.773C27.2051 18.7582 27.1879 18.7451 27.1854 18.7431L26.4045 19.749ZM27.2425 18.7909L27.2353 18.7843L26.3817 19.7294L26.389 19.7359L27.2425 18.7909ZM28.3006 19.9344C28.2982 19.9303 28.2812 19.9003 28.2606 19.8704L27.2112 20.5917C27.2035 20.5805 27.1982 20.5718 27.1964 20.5687C27.1956 20.5675 27.1954 20.5671 27.1961 20.5683C27.1969 20.5696 27.1979 20.5713 27.1997 20.5746L28.3006 19.9344ZM27.2474 20.638C27.25 20.6407 27.2513 20.6421 27.2524 20.6432C27.2534 20.6443 27.2531 20.644 27.2521 20.6429C27.2497 20.6403 27.2428 20.6328 27.2342 20.6224L28.2191 19.8151C28.1961 19.7871 28.1721 19.7625 28.1688 19.759L27.2474 20.638ZM28.2608 19.8706C28.2476 19.8514 28.2337 19.8329 28.2191 19.8151L27.2343 20.6224C27.2261 20.6125 27.2184 20.6022 27.2111 20.5915L28.2608 19.8706ZM4.36417 20.2444C4.36163 20.2473 4.34271 20.2687 4.32456 20.2925L5.33701 21.0649C5.33018 21.0738 5.32476 21.0803 5.32298 21.0824C5.32223 21.0833 5.322 21.0836 5.32283 21.0826C5.32368 21.0816 5.32478 21.0803 5.3268 21.078L4.36417 20.2444ZM5.36447 21.0249C5.36599 21.0222 5.3668 21.0208 5.36744 21.0197C5.36806 21.0186 5.36787 21.0189 5.36726 21.02C5.3658 21.0224 5.36151 21.0297 5.35537 21.039L4.29152 20.3391C4.27508 20.3641 4.2612 20.3889 4.25927 20.3923L5.36447 21.0249ZM4.32455 20.2925C4.31299 20.3077 4.302 20.3232 4.29151 20.3391L5.35537 21.039C5.34956 21.0478 5.34341 21.0565 5.33702 21.0649L4.32455 20.2925ZM28.0454 22.2843C28.1192 22.2843 28.2222 22.285 28.3109 22.2763C28.3977 22.2677 28.5825 22.2423 28.7533 22.1067L27.9613 21.1095C28.0226 21.0608 28.0823 21.0356 28.1237 21.0227C28.1436 21.0166 28.1594 21.0132 28.1691 21.0115C28.1789 21.0097 28.1849 21.0091 28.1856 21.009C28.1864 21.0089 28.184 21.0092 28.1774 21.0095C28.1708 21.0098 28.1618 21.0101 28.1492 21.0104C28.1227 21.0108 28.0908 21.0109 28.0454 21.0109V22.2843ZM27.7492 21.5193C27.7724 21.5591 27.7887 21.5872 27.8018 21.6108C27.8081 21.6221 27.8126 21.6303 27.8157 21.6364C27.8189 21.6426 27.82 21.645 27.8198 21.6445C27.8196 21.6442 27.8173 21.639 27.8139 21.6299C27.8106 21.6208 27.8056 21.6057 27.8009 21.5855C27.7912 21.5438 27.7826 21.4789 27.7941 21.4002L29.0542 21.5835C29.0858 21.3663 29.0134 21.1926 28.9776 21.1143C28.9405 21.0332 28.8878 20.9441 28.85 20.8791L27.7492 21.5193ZM28.7533 22.1067C28.9166 21.977 29.0242 21.7899 29.0542 21.5835L27.7941 21.4002C27.8107 21.2855 27.8705 21.1816 27.9613 21.1095L28.7533 22.1067ZM18.4297 18.9277C18.4255 18.9294 18.4232 18.9303 18.4214 18.931C18.4197 18.9317 18.4202 18.9314 18.4219 18.9308C18.426 18.9293 18.4378 18.9249 18.4539 18.9201L18.814 20.1416C18.8571 20.1289 18.8966 20.1124 18.902 20.1103L18.4297 18.9277ZM18.6379 20.1733C18.6437 20.1728 18.6863 20.1696 18.7305 20.1615L18.5003 18.9091C18.5168 18.906 18.5293 18.9046 18.5337 18.9041C18.5355 18.9039 18.5361 18.9039 18.5342 18.9041C18.5323 18.9042 18.5299 18.9045 18.5253 18.9049L18.6379 20.1733ZM18.4539 18.9201C18.4692 18.9156 18.4847 18.9119 18.5003 18.9091L18.7305 20.1615C18.7587 20.1563 18.7866 20.1497 18.814 20.1416L18.4539 18.9201ZM4.78126 21.0109C4.73678 21.0109 4.70587 21.0108 4.68022 21.0104C4.6542 21.0099 4.64565 21.0091 4.64628 21.0091C4.6474 21.0092 4.65372 21.0099 4.6638 21.0117C4.67391 21.0136 4.68987 21.017 4.70984 21.0233C4.75154 21.0363 4.81021 21.0615 4.87021 21.1089L4.08043 22.1078C4.24934 22.2414 4.43125 22.2674 4.51933 22.2762C4.60751 22.285 4.70949 22.2843 4.78126 22.2843V21.0109ZM3.97741 20.8847C3.94035 20.9495 3.88856 21.0385 3.8521 21.1196C3.81682 21.1981 3.74616 21.3714 3.77861 21.5873L5.03789 21.3981C5.04962 21.4762 5.0415 21.5408 5.03207 21.5825C5.02753 21.6026 5.02261 21.6178 5.01935 21.6269C5.0161 21.6361 5.01374 21.6413 5.01353 21.6418C5.0133 21.6423 5.01435 21.6399 5.01745 21.6339C5.02053 21.6278 5.02488 21.6196 5.03101 21.6085C5.04391 21.5849 5.05989 21.557 5.0826 21.5173L3.97741 20.8847ZM4.87021 21.1089C4.96078 21.1805 5.02073 21.2839 5.03789 21.3981L3.77861 21.5873C3.80949 21.7928 3.91739 21.9789 4.08043 22.1078L4.87021 21.1089Z" fill="#004F82" mask="url(#path-3-outside-1_92_549)"/>
<path d="M49.4472 19.015H51.5383V25.9996C51.3658 26.057 51.1143 26.1217 50.7838 26.1936C50.4676 26.2654 50.0939 26.3373 49.6628 26.4091C49.246 26.481 48.7861 26.5385 48.2831 26.5816C47.7801 26.6391 47.2699 26.6678 46.7526 26.6678C45.7035 26.6678 44.7478 26.4954 43.8855 26.1505C43.0232 25.8055 42.283 25.3025 41.6651 24.6415C41.0471 23.9804 40.5657 23.1684 40.2207 22.2055C39.8902 21.2426 39.7249 20.136 39.7249 18.8857C39.7249 17.6354 39.9118 16.5288 40.2854 15.5659C40.6734 14.5886 41.1908 13.7694 41.8375 13.1084C42.4842 12.4473 43.2387 11.9443 44.101 11.5994C44.9777 11.2544 45.9118 11.082 46.9035 11.082C47.5789 11.082 48.1753 11.1251 48.6927 11.2113C49.2245 11.2976 49.6772 11.3982 50.0508 11.5131C50.4245 11.6281 50.7263 11.7431 50.9562 11.858C51.2005 11.973 51.3658 12.0592 51.452 12.1167L50.7838 13.8629C50.367 13.5898 49.8137 13.367 49.1239 13.1946C48.434 13.0078 47.7298 12.9143 47.0113 12.9143C46.2496 12.9143 45.5526 13.0509 44.9202 13.3239C44.3022 13.597 43.7705 13.9922 43.325 14.5096C42.8938 15.0269 42.5561 15.6593 42.3118 16.4066C42.0675 17.1396 41.9453 17.9659 41.9453 18.8857C41.9453 19.7767 42.0459 20.5887 42.2471 21.3216C42.4627 22.0546 42.7789 22.6869 43.1956 23.2187C43.6268 23.7361 44.1513 24.1385 44.7693 24.4259C45.4017 24.7133 46.1418 24.857 46.9897 24.857C47.5933 24.857 48.1035 24.8283 48.5203 24.7708C48.9514 24.6989 49.2604 24.6343 49.4472 24.5768V19.015ZM54.8123 26.366V11.4269H63.931V13.2161H56.9033V17.6569H63.1549V19.4031H56.9033V24.5768H64.4699V26.366H54.8123ZM67.1277 26.366V11.4269H76.2463V13.2161H69.2187V17.6569H75.4703V19.4031H69.2187V24.5768H76.7853V26.366H67.1277ZM90.5019 11.4269C90.0564 11.9155 89.5534 12.4616 88.9929 13.0652C88.4324 13.6545 87.8432 14.2653 87.2252 14.8976C86.6216 15.5156 86.018 16.1264 85.4144 16.73C84.8108 17.3336 84.2431 17.8941 83.7114 18.4114C84.3293 18.8426 84.9832 19.3743 85.6731 20.0067C86.3629 20.639 87.0384 21.3145 87.6994 22.033C88.3605 22.7516 88.9785 23.4845 89.5534 24.2319C90.1426 24.9792 90.6312 25.6906 91.0192 26.366H88.5617C88.1306 25.6906 87.6348 25.0151 87.0743 24.3397C86.5138 23.6498 85.9174 22.9959 85.285 22.3779C84.6671 21.7456 84.0347 21.1636 83.388 20.6318C82.7557 20.1001 82.1377 19.6474 81.5341 19.2737V26.366H79.443V11.4269H81.5341V18.0234C82.0371 17.5491 82.5904 17.0174 83.194 16.4282C83.7976 15.8246 84.394 15.221 84.9832 14.6174C85.5725 14.0138 86.1258 13.4389 86.6431 12.8928C87.1749 12.3323 87.6204 11.8437 87.9797 11.4269H90.5019Z" fill="#9B0013"/>
<path d="M96.8377 11.4269C97.0964 11.9012 97.391 12.4904 97.7215 13.1946C98.0664 13.8844 98.4185 14.6389 98.7778 15.4581C99.1515 16.2629 99.5179 17.0892 99.8772 17.9372C100.237 18.7851 100.574 19.5827 100.89 20.33C101.207 19.5827 101.544 18.7851 101.904 17.9372C102.263 17.0892 102.622 16.2629 102.981 15.4581C103.355 14.6389 103.707 13.8844 104.038 13.1946C104.383 12.4904 104.684 11.9012 104.943 11.4269H108.004C108.148 12.4185 108.277 13.5323 108.392 14.7683C108.522 15.9898 108.629 17.2689 108.716 18.6054C108.816 19.9276 108.903 21.257 108.974 22.5935C109.061 23.9301 109.132 25.1876 109.19 26.366H105.913C105.87 24.9145 105.813 23.3336 105.741 21.6234C105.669 19.9132 105.561 18.1887 105.417 16.4497C105.159 17.0533 104.871 17.7216 104.555 18.4545C104.239 19.1875 103.923 19.9204 103.607 20.6534C103.305 21.3863 103.01 22.0905 102.723 22.766C102.435 23.4271 102.191 23.9947 101.99 24.469H99.6401C99.4389 23.9947 99.1946 23.4271 98.9072 22.766C98.6197 22.0905 98.3179 21.3863 98.0018 20.6534C97.7 19.9204 97.391 19.1875 97.0748 18.4545C96.7586 17.7216 96.4712 17.0533 96.2125 16.4497C96.0688 18.1887 95.961 19.9132 95.8892 21.6234C95.8173 23.3336 95.7598 24.9145 95.7167 26.366H92.44C92.4975 25.1876 92.5622 23.9301 92.634 22.5935C92.7202 21.257 92.8065 19.9276 92.8927 18.6054C92.9933 17.2689 93.1011 15.9898 93.2161 14.7683C93.3454 13.5323 93.4819 12.4185 93.6256 11.4269H96.8377ZM112.218 26.366V11.4269H122.307V14.2509H115.581V17.1827H121.552V19.942H115.581V23.542H122.802V26.366H112.218ZM128.654 23.6283C128.812 23.6426 128.992 23.657 129.193 23.6714C129.409 23.6714 129.66 23.6714 129.947 23.6714C131.629 23.6714 132.872 23.2474 133.677 22.3995C134.496 21.5516 134.906 20.3803 134.906 18.8857C134.906 17.3192 134.518 16.1335 133.742 15.3287C132.965 14.5239 131.737 14.1215 130.055 14.1215C129.825 14.1215 129.588 14.1287 129.344 14.1431C129.1 14.1431 128.87 14.1575 128.654 14.1862V23.6283ZM138.376 18.8857C138.376 20.1791 138.175 21.3073 137.773 22.2702C137.37 23.233 136.795 24.0307 136.048 24.663C135.315 25.2954 134.417 25.7696 133.354 26.0858C132.29 26.402 131.097 26.56 129.775 26.56C129.171 26.56 128.467 26.5313 127.662 26.4738C126.858 26.4307 126.067 26.3301 125.291 26.172V11.6209C126.067 11.4772 126.872 11.3838 127.706 11.3407C128.553 11.2832 129.279 11.2544 129.883 11.2544C131.162 11.2544 132.319 11.3982 133.354 11.6856C134.403 11.973 135.301 12.4257 136.048 13.0437C136.795 13.6617 137.37 14.4521 137.773 15.415C138.175 16.3779 138.376 17.5348 138.376 18.8857ZM141.185 11.4269H144.548V26.366H141.185V11.4269ZM158.009 26.366C157.851 25.8487 157.671 25.3169 157.47 24.7708C157.283 24.2247 157.096 23.6786 156.909 23.1324H151.089C150.902 23.6786 150.708 24.2247 150.507 24.7708C150.32 25.3169 150.148 25.8487 149.989 26.366H146.497C147.058 24.7564 147.589 23.269 148.092 21.9037C148.595 20.5384 149.084 19.2522 149.558 18.045C150.047 16.8377 150.521 15.6952 150.981 14.6174C151.455 13.5251 151.944 12.4616 152.447 11.4269H155.659C156.148 12.4616 156.629 13.5251 157.103 14.6174C157.578 15.6952 158.052 16.8377 158.526 18.045C159.015 19.2522 159.511 20.5384 160.014 21.9037C160.517 23.269 161.048 24.7564 161.609 26.366H158.009ZM153.978 14.8114C153.906 15.0269 153.798 15.3216 153.654 15.6952C153.51 16.0689 153.345 16.5 153.158 16.9886C152.972 17.4773 152.763 18.0162 152.533 18.6054C152.318 19.1947 152.095 19.8126 151.865 20.4594H156.112C155.882 19.8126 155.659 19.1947 155.443 18.6054C155.228 18.0162 155.019 17.4773 154.818 16.9886C154.631 16.5 154.466 16.0689 154.322 15.6952C154.179 15.3216 154.064 15.0269 153.978 14.8114Z" fill="#004F82"/>
</svg>
